<svg xmlns="http://www.w3.org/2000/svg" xmlns:xlink="http://www.w3.org/1999/xlink" xmlns:serif="http://www.serif.com/" width="100%" height="100%" viewBox="0 0 1134 200" xml:space="preserve" style="fill-rule:evenodd;clip-rule:evenodd;stroke-linejoin:round;stroke-miterlimit:2;">
    <g transform="matrix(1,0,0,1,-666.667,-400)">
        <g transform="matrix(8.33333,0,0,8.33333,0,-74278.6)">
            <path d="M129.7,8976.92C130.273,8977.39 131.02,8977.63 131.94,8977.63C132.746,8977.63 133.398,8977.45 133.896,8977.11C134.394,8976.76 134.643,8976.28 134.643,8975.66C134.643,8975.22 134.507,8974.87 134.236,8974.61C133.965,8974.35 133.597,8974.15 133.131,8974.01C132.664,8973.87 132.009,8973.73 131.164,8973.58C130.308,8973.42 129.574,8973.23 128.963,8972.98C128.351,8972.73 127.853,8972.36 127.469,8971.85C127.085,8971.35 126.893,8970.68 126.893,8969.86C126.893,8969.11 127.091,8968.43 127.488,8967.84C127.885,8967.25 128.439,8966.78 129.151,8966.46C129.863,8966.13 130.679,8965.96 131.599,8965.96C132.545,8965.96 133.389,8966.14 134.132,8966.49C134.876,8966.85 135.462,8967.33 135.891,8967.95C136.319,8968.57 136.552,8969.28 136.59,8970.07L134.454,8970.07C134.378,8969.39 134.082,8968.84 133.565,8968.43C133.049,8968.01 132.393,8967.8 131.599,8967.8C130.831,8967.8 130.216,8967.97 129.756,8968.3C129.296,8968.64 129.066,8969.11 129.066,8969.71C129.066,8970.14 129.202,8970.48 129.473,8970.74C129.744,8970.99 130.106,8971.18 130.56,8971.3C131.013,8971.43 131.662,8971.57 132.507,8971.72C133.364,8971.87 134.101,8972.07 134.718,8972.33C135.336,8972.58 135.84,8972.95 136.231,8973.44C136.621,8973.93 136.817,8974.59 136.817,8975.39C136.817,8976.18 136.609,8976.88 136.193,8977.5C135.777,8978.11 135.197,8978.6 134.454,8978.94C133.71,8979.29 132.866,8979.46 131.921,8979.46C130.875,8979.46 129.955,8979.27 129.161,8978.9C128.367,8978.52 127.746,8977.99 127.299,8977.32C126.852,8976.64 126.622,8975.87 126.609,8975L128.745,8975.03C128.808,8975.82 129.126,8976.44 129.7,8976.92Z"></path>
        </g>
        <g transform="matrix(8.33333,0,0,8.33333,0,-74271.3)">
            <path d="M137.459,8970.58L137.459,8968.78L139.141,8968.78L139.141,8966.08L141.202,8966.08L141.202,8968.78L143.527,8968.78L143.527,8970.58L141.202,8970.58L141.202,8975.64C141.202,8976.02 141.278,8976.29 141.429,8976.44C141.58,8976.6 141.839,8976.68 142.204,8976.68L143.754,8976.68L143.754,8978.48L141.788,8978.48C140.868,8978.48 140.197,8978.26 139.775,8977.84C139.353,8977.41 139.141,8976.74 139.141,8975.85L139.141,8970.58L137.459,8970.58Z"></path>
        </g>
        <g transform="matrix(8.33333,0,0,8.33333,0,-74248.7)">
            <path d="M148.404,8971.45C147.774,8971.45 147.288,8971.58 146.949,8971.82C146.608,8972.07 146.438,8972.43 146.438,8972.91C146.438,8973.33 146.599,8973.66 146.92,8973.92C147.241,8974.17 147.679,8974.3 148.234,8974.3C149.078,8974.3 149.737,8974.07 150.209,8973.61C150.682,8973.16 150.924,8972.55 150.937,8971.8L150.937,8971.45L148.404,8971.45ZM153.999,8975.77L152.922,8975.77C152.292,8975.77 151.838,8975.64 151.561,8975.37C151.284,8975.11 151.145,8974.72 151.145,8974.22C150.414,8975.33 149.349,8975.89 147.95,8975.89C146.866,8975.89 145.997,8975.63 145.342,8975.13C144.686,8974.62 144.359,8973.93 144.359,8973.05C144.359,8972.05 144.711,8971.28 145.417,8970.75C146.123,8970.21 147.15,8969.94 148.498,8969.94L150.937,8969.94L150.937,8969.35C150.937,8968.81 150.748,8968.38 150.37,8968.08C149.992,8967.76 149.469,8967.61 148.801,8967.61C148.208,8967.61 147.72,8967.74 147.336,8968C146.952,8968.26 146.721,8968.6 146.646,8969.03L144.642,8969.03C144.743,8968.06 145.171,8967.31 145.928,8966.77C146.684,8966.23 147.673,8965.96 148.895,8965.96C150.193,8965.96 151.195,8966.27 151.901,8966.87C152.607,8967.48 152.96,8968.35 152.96,8969.49L152.96,8973.31C152.96,8973.76 153.174,8973.99 153.602,8973.99L153.999,8973.99L153.999,8975.77Z"></path>
        </g>
        <g transform="matrix(8.33333,0,0,8.33333,0,-74277.5)">
            <path d="M162.487,8974.41C162.487,8973.44 162.229,8972.65 161.712,8972.05C161.195,8971.45 160.514,8971.15 159.67,8971.15C158.826,8971.15 158.145,8971.45 157.629,8972.05C157.112,8972.65 156.853,8973.43 156.853,8974.37C156.853,8975.33 157.112,8976.11 157.629,8976.71C158.145,8977.31 158.826,8977.61 159.67,8977.61C160.514,8977.61 161.195,8977.31 161.712,8976.72C162.229,8976.13 162.487,8975.36 162.487,8974.41ZM164.509,8979.22L162.732,8979.22L162.487,8977.76C161.718,8978.81 160.666,8979.33 159.33,8979.33C158.448,8979.33 157.66,8979.13 156.967,8978.74C156.274,8978.34 155.732,8977.76 155.341,8977.01C154.951,8976.26 154.755,8975.38 154.755,8974.37C154.755,8973.39 154.954,8972.52 155.351,8971.77C155.748,8971.02 156.293,8970.44 156.986,8970.03C157.679,8969.62 158.46,8969.41 159.33,8969.41C160.036,8969.41 160.653,8969.54 161.182,8969.8C161.712,8970.06 162.14,8970.41 162.468,8970.87L162.468,8965.96L164.509,8965.96L164.509,8979.22Z"></path>
        </g>
        <g transform="matrix(8.33333,0,0,8.33333,0,-74281.1)">
            <path d="M166.513,8979.65L168.555,8979.65L168.555,8969.96L166.513,8969.96L166.513,8979.65ZM168.781,8967.31C168.781,8967.66 168.662,8967.95 168.422,8968.19C168.183,8968.42 167.887,8968.54 167.534,8968.54C167.181,8968.54 166.885,8968.42 166.645,8968.19C166.406,8967.95 166.286,8967.66 166.286,8967.31C166.286,8966.95 166.406,8966.66 166.645,8966.43C166.885,8966.19 167.181,8966.08 167.534,8966.08C167.887,8966.08 168.183,8966.19 168.422,8966.43C168.662,8966.66 168.781,8966.95 168.781,8967.31Z"></path>
        </g>
        <g transform="matrix(8.33333,0,0,8.33333,0,-74248.7)">
            <path d="M177.987,8970.92C177.987,8969.98 177.725,8969.2 177.203,8968.6C176.679,8968.01 175.99,8967.7 175.133,8967.7C174.276,8967.7 173.589,8968.01 173.072,8968.6C172.556,8969.2 172.297,8969.98 172.297,8970.92C172.297,8971.87 172.556,8972.64 173.072,8973.24C173.589,8973.84 174.276,8974.14 175.133,8974.14C175.99,8974.14 176.679,8973.84 177.203,8973.24C177.725,8972.64 177.987,8971.87 177.987,8970.92ZM170.813,8973.53C170.404,8972.78 170.199,8971.91 170.199,8970.92C170.199,8969.95 170.404,8969.09 170.813,8968.34C171.223,8967.59 171.803,8967.01 172.552,8966.59C173.302,8966.17 174.162,8965.96 175.133,8965.96C176.103,8965.96 176.963,8966.17 177.713,8966.59C178.463,8967.01 179.042,8967.59 179.452,8968.34C179.861,8969.09 180.066,8969.95 180.066,8970.92C180.066,8971.91 179.861,8972.78 179.452,8973.53C179.042,8974.28 178.463,8974.86 177.713,8975.27C176.963,8975.68 176.103,8975.89 175.133,8975.89C174.162,8975.89 173.302,8975.68 172.552,8975.27C171.803,8974.86 171.223,8974.28 170.813,8973.53Z"></path>
        </g>
        <g transform="matrix(8.33333,0,0,8.33333,0,-74278.4)">
            <path d="M186.947,8972.63C187.728,8972.63 188.349,8972.42 188.809,8971.99C189.269,8971.57 189.499,8971.01 189.499,8970.3C189.499,8969.58 189.272,8969.01 188.818,8968.6C188.365,8968.18 187.747,8967.97 186.966,8967.97L184.093,8967.97L184.093,8972.63L186.947,8972.63ZM189.537,8966.6C190.23,8966.94 190.765,8967.44 191.143,8968.08C191.522,8968.71 191.711,8969.45 191.711,8970.3C191.711,8971.15 191.522,8971.89 191.143,8972.52C190.765,8973.16 190.23,8973.66 189.537,8974C188.843,8974.35 188.043,8974.52 187.136,8974.52L184.093,8974.52L184.093,8979.33L181.919,8979.33L181.919,8966.08L187.136,8966.08C188.043,8966.08 188.843,8966.25 189.537,8966.6Z"></path>
        </g>
        <g transform="matrix(8.33333,0,0,8.33333,0,-74278.4)">
            <rect x="193.166" y="8966.08" width="2.042" height="13.255"></rect>
        </g>
        <g transform="matrix(8.33333,0,0,8.33333,0,-74247.8)">
            <path d="M205.888,8975.66L204.092,8975.66L203.865,8974.43C203.134,8975.32 202.138,8975.77 200.878,8975.77C199.744,8975.77 198.824,8975.42 198.118,8974.71C197.413,8974.01 197.06,8972.87 197.06,8971.3L197.06,8965.96L199.101,8965.96L199.101,8971.1C199.101,8972.04 199.29,8972.76 199.668,8973.25C200.046,8973.75 200.607,8973.99 201.351,8973.99C202.132,8973.99 202.743,8973.7 203.184,8973.13C203.625,8972.56 203.846,8971.77 203.846,8970.77L203.846,8965.96L205.888,8965.96L205.888,8975.66Z"></path>
        </g>
        <g transform="matrix(8.33333,0,0,8.33333,0,-74248.9)">
            <path d="M210.225,8973.83C210.66,8974.15 211.224,8974.32 211.917,8974.32C212.534,8974.32 213.035,8974.2 213.42,8973.97C213.804,8973.73 213.996,8973.42 213.996,8973.03C213.996,8972.7 213.908,8972.45 213.732,8972.29C213.555,8972.12 213.319,8972.01 213.023,8971.94C212.727,8971.87 212.27,8971.8 211.653,8971.72C210.808,8971.62 210.112,8971.48 209.563,8971.31C209.015,8971.14 208.574,8970.87 208.24,8970.5C207.906,8970.13 207.739,8969.62 207.739,8968.99C207.739,8968.4 207.906,8967.87 208.24,8967.41C208.574,8966.95 209.034,8966.6 209.62,8966.34C210.206,8966.09 210.871,8965.96 211.614,8965.96C212.837,8965.96 213.829,8966.24 214.592,8966.78C215.354,8967.32 215.767,8968.09 215.83,8969.07L213.845,8969.07C213.795,8968.63 213.574,8968.26 213.183,8967.98C212.793,8967.7 212.301,8967.56 211.709,8967.56C211.117,8967.56 210.638,8967.67 210.272,8967.9C209.907,8968.12 209.724,8968.43 209.724,8968.82C209.724,8969.11 209.816,8969.33 209.998,8969.48C210.181,8969.62 210.411,8969.72 210.688,8969.78C210.966,8969.84 211.413,8969.9 212.03,8969.98C212.862,8970.07 213.562,8970.2 214.129,8970.39C214.696,8970.57 215.15,8970.86 215.49,8971.26C215.83,8971.66 216,8972.19 216,8972.88C216,8973.48 215.824,8974.01 215.471,8974.48C215.118,8974.94 214.633,8975.29 214.015,8975.54C213.398,8975.78 212.704,8975.91 211.936,8975.91C210.638,8975.91 209.589,8975.61 208.789,8975.02C207.988,8974.44 207.576,8973.63 207.55,8972.59L209.516,8972.59C209.554,8973.1 209.79,8973.51 210.225,8973.83Z"></path>
        </g>
        <g transform="matrix(8.33333,0,0,8.33333,0,-74266.7)">
            <path d="M84.406,8979.59L113.91,8979.59L113.91,8964.41L84.406,8964.41L84.406,8979.59ZM106.336,8960L91.98,8960C85.374,8960 80,8965.38 80,8972C80,8978.62 85.374,8984 91.98,8984L106.336,8984C112.942,8984 118.316,8978.62 118.316,8972C118.316,8965.38 112.942,8960 106.336,8960Z"></path>
        </g>
        <g transform="matrix(8.33333,0,0,8.33333,0,-74084)">
            <path d="M117.29,8961.01L117.475,8961.01C117.538,8961.01 117.588,8960.98 117.588,8960.91C117.588,8960.85 117.541,8960.82 117.475,8960.82L117.29,8960.82L117.29,8961.01ZM117.632,8961.13L117.769,8961.42L117.588,8961.42L117.463,8961.16L117.29,8961.16L117.29,8961.42L117.121,8961.42L117.121,8960.65L117.487,8960.65C117.671,8960.65 117.773,8960.76 117.773,8960.91C117.773,8961.01 117.722,8961.09 117.632,8961.13ZM118.185,8961.04C118.185,8960.6 117.852,8960.28 117.428,8960.28C116.992,8960.28 116.674,8960.61 116.674,8961.04C116.674,8961.48 116.992,8961.8 117.428,8961.8C117.852,8961.8 118.185,8961.48 118.185,8961.04ZM118.362,8961.03C118.362,8961.56 117.954,8961.96 117.431,8961.96C116.905,8961.96 116.489,8961.57 116.489,8961.03C116.489,8960.52 116.909,8960.12 117.431,8960.12C117.95,8960.12 118.362,8960.52 118.362,8961.03Z"></path>
        </g>
    </g>
</svg>